<svg aria-hidden="true" style="position: absolute; width: 0; height: 0; overflow: hidden;" version="1.1" xmlns="http://www.w3.org/2000/svg" xmlns:xlink="http://www.w3.org/1999/xlink">
<defs>
<symbol id="icon-armani" viewBox="0 0 53 32">
<path d="M0.113 0.113h53.106v31.773h-53.106v-31.773z"></path>
<path fill="#3f3f3f" style="fill: var(--color2, #3f3f3f)" d="M40.234 12.977l0.293 0.009c0.2 0 0.347 0.007 0.429 0.020 0.084 0.014 0.145 0.039 0.188 0.070 0.052 0.039 0.089 0.104 0.102 0.193 0.009 0.091 0.018 0.268 0.018 0.533v3.901l-3.931-4.898h-2.092v0.17h0.799l0.182 0.118v5.556c0 0.011-0.002 0.027-0.005 0.039-0.002 0.014-0.005 0.023-0.005 0.032-0.020 0.218-0.064 0.365-0.129 0.447-0.064 0.077-0.234 0.116-0.508 0.109h-0.817l-2.54-6.568h-0.141l-0.325 0.887-1.797 4.934c-0.032 0.091-0.066 0.175-0.091 0.243-0.025 0.070-0.054 0.134-0.079 0.184-0.082 0.161-0.179 0.256-0.295 0.286-0.091 0.023-0.234 0.036-0.433 0.036v-0.002h-0.98v-6.3h0.98v-0.17h-1.961l-2.061 4.988-2.204-4.988h-1.881v0.17h0.849l0.091 0.179v5.513c0 0.245-0.045 0.413-0.132 0.495s-0.256 0.12-0.506 0.113h-0.34v0.168h2.213v-0.168l-0.293 0.009c-0.372 0-0.595-0.061-0.665-0.184s-0.107-0.306-0.107-0.552v-0.159c-0.007-0.029-0.009-0.057-0.009-0.086v-4.782l2.54 5.794 2.503-6.003v5.962h-0.969v0.168h4.882v-0.168l-0.313 0.009c-0.243 0-0.415-0.023-0.52-0.064-0.104-0.043-0.157-0.12-0.157-0.225 0-0.032 0.009-0.086 0.029-0.159s0.052-0.175 0.091-0.297l0.463-1.264h2.306l0.778 1.999h-1.010v0.168h4.759v-0.159c-0.511 0-0.815-0.043-0.912-0.134-0.091-0.088-0.141-0.399-0.141-0.93v-4.948l4.975 6.223h0.059v-5.685c0-0.252 0.007-0.415 0.011-0.497 0.005-0.079 0.027-0.145 0.061-0.191 0.005 0 0.014-0.005 0.016-0.009 0.005-0.007 0.009-0.014 0.016-0.020 0.032-0.045 0.089-0.075 0.17-0.088 0.079-0.014 0.222-0.025 0.424-0.030h0.281v-0.17h-2.161v0.17zM31.753 17.108h-1.089l1.060-2.946 0.029 0.079 1.092 2.866h-1.092zM45.844 12.977v-0.17h-2.971v0.17h0.978v6.3h-0.978v0.168h2.971v-0.168h-0.983v-6.3h0.983zM20.276 19.298c-0.043 0.011-0.082 0.020-0.116 0.020-0.020 0.005-0.041 0.009-0.061 0.009h-0.068c-0.222 0-0.368-0.132-0.431-0.388-0.066-0.259-0.109-0.558-0.136-0.896-0.007-0.032-0.014-0.066-0.016-0.098-0.002-0.034-0.005-0.070-0.005-0.102-0.018-0.229-0.050-0.458-0.095-0.685-0.043-0.22-0.12-0.399-0.229-0.538-0.132-0.179-0.313-0.315-0.533-0.411-0.22-0.093-0.542-0.168-0.96-0.227 0.020 0 0.039-0.002 0.057-0.005s0.036-0.005 0.054-0.005c0.479-0.066 0.915-0.211 1.314-0.429 0.397-0.22 0.595-0.608 0.595-1.164 0-0.565-0.197-0.958-0.59-1.178-0.393-0.222-0.826-0.35-1.298-0.374-0.043-0.007-0.086-0.011-0.129-0.011-0.041 0-0.084-0.005-0.123-0.009h-3.486v0.17h0.98v6.3h-1.641l-2.535-6.568h-0.141l-0.325 0.887-1.8 4.934c-0.034 0.091-0.064 0.175-0.088 0.243-0.027 0.070-0.054 0.134-0.084 0.184-0.079 0.161-0.177 0.256-0.29 0.286s-0.318 0.041-0.606 0.034v0.168h2.12v-0.168l-0.313 0.009c-0.243 0-0.413-0.023-0.52-0.064-0.104-0.043-0.157-0.12-0.157-0.225 0-0.032 0.011-0.086 0.032-0.159 0.018-0.073 0.048-0.175 0.088-0.297l0.465-1.264h2.306l0.778 1.999h-1.012v0.168h5.753v-0.168h-1.044v-3.216l0.397 0.009c0.363 0 0.669 0.023 0.912 0.070 0.313 0.059 0.529 0.157 0.642 0.295 0.2 0.241 0.338 0.672 0.413 1.289 0.014 0.077 0.027 0.159 0.032 0.238 0.007 0.079 0.018 0.163 0.029 0.25 0.054 0.483 0.177 0.824 0.37 1.017 0.191 0.188 0.502 0.288 0.924 0.288 0.109 0 0.209-0.007 0.297-0.016 0.091-0.011 0.182-0.029 0.268-0.057 0.041 0 0.079-0.007 0.118-0.018 0.039-0.014 0.077-0.032 0.116-0.050l-0.061-0.132c-0.068 0.020-0.125 0.039-0.168 0.052zM10.358 17.108h-1.092l1.060-2.946 0.032 0.079 1.092 2.866h-1.092zM16.817 15.884c-0.143 0.011-0.286 0.020-0.427 0.023-0.138 0.002-0.275 0.002-0.404-0.005v-2.925l0.356 0.009c0.386 0 0.706 0.014 0.953 0.041 0.15 0.018 0.272 0.039 0.37 0.064 0.261 0.070 0.479 0.213 0.645 0.433 0.061 0.079 0.116 0.175 0.159 0.288 0.043 0.111 0.079 0.225 0.107 0.34 0.005 0.050 0.011 0.104 0.020 0.159 0.005 0.050 0.009 0.1 0.009 0.15 0 0.527-0.186 0.892-0.563 1.085-0.236 0.12-0.486 0.209-0.747 0.268-0.157 0.034-0.315 0.057-0.479 0.070z"></path>
</symbol>
<symbol id="icon-gucci" viewBox="0 0 53 32">
<path d="M0.113 0.113h53.106v31.773h-53.106v-31.773z"></path>
<path fill="#3f3f3f" style="fill: var(--color2, #3f3f3f)" d="M38.153 14.654l-0.052 0.018c-0.2-0.47-0.486-0.844-0.858-1.121-0.365-0.279-0.826-0.418-1.38-0.418-0.309 0-0.604 0.070-0.883 0.213-0.279 0.136-0.527 0.331-0.738 0.583-0.207 0.247-0.372 0.547-0.497 0.901-0.125 0.352-0.188 0.742-0.188 1.169 0 0.424 0.064 0.815 0.188 1.167 0.127 0.352 0.293 0.656 0.497 0.91 0.211 0.247 0.456 0.438 0.738 0.574 0.279 0.136 0.574 0.204 0.883 0.204 0.549 0 0.994-0.093 1.337-0.279 0.349-0.191 0.645-0.481 0.883-0.872l0.052 0.018-0.018 0.595c-0.129 0.148-0.281 0.281-0.454 0.397-0.17 0.113-0.356 0.209-0.556 0.288-0.195 0.075-0.397 0.129-0.608 0.168-0.213 0.043-0.424 0.064-0.635 0.064-0.44 0-0.86-0.077-1.26-0.232s-0.751-0.37-1.055-0.649c-0.302-0.284-0.542-0.624-0.719-1.019-0.177-0.402-0.266-0.847-0.266-1.334 0-0.49 0.089-0.931 0.266-1.328 0.177-0.402 0.418-0.744 0.719-1.028 0.304-0.284 0.656-0.502 1.055-0.649 0.399-0.154 0.819-0.232 1.26-0.232 0.211 0 0.422 0.018 0.635 0.054 0.211 0.039 0.413 0.095 0.608 0.177 0.2 0.075 0.386 0.17 0.556 0.288 0.172 0.111 0.325 0.241 0.454 0.388l0.036 0.983z"></path>
<path fill="#3f3f3f" style="fill: var(--color2, #3f3f3f)" d="M18.442 16.424c-0.064 0.032-0.125 0.073-0.184 0.12-0.057 0.050-0.086 0.118-0.086 0.204v1.142c-0.281 0.427-0.64 0.758-1.078 0.992-0.438 0.236-0.924 0.352-1.455 0.352-0.449 0-0.881-0.077-1.289-0.232s-0.767-0.37-1.078-0.649c-0.309-0.284-0.554-0.624-0.735-1.019-0.182-0.402-0.272-0.847-0.272-1.337 0-0.488 0.091-0.928 0.272-1.325 0.182-0.402 0.427-0.744 0.735-1.028 0.311-0.286 0.669-0.502 1.078-0.649 0.409-0.154 0.84-0.232 1.289-0.232 0.216 0 0.431 0.018 0.649 0.054 0.216 0.039 0.422 0.095 0.622 0.177 0.204 0.075 0.393 0.17 0.57 0.288 0.175 0.111 0.329 0.241 0.463 0.388l0.036 0.983-0.052 0.018c-0.204-0.47-0.497-0.842-0.876-1.121-0.374-0.279-0.844-0.418-1.412-0.418-0.315 0-0.617 0.070-0.903 0.213-0.286 0.136-0.538 0.331-0.753 0.583-0.209 0.247-0.379 0.549-0.508 0.901-0.127 0.352-0.193 0.742-0.193 1.167 0 0.422 0.061 0.808 0.186 1.16 0.127 0.352 0.297 0.656 0.506 0.908 0.218 0.247 0.468 0.443 0.753 0.586 0.286 0.136 0.59 0.204 0.912 0.204 0.608 0 1.128-0.125 1.559-0.372v-1.734c0-0.086-0.032-0.154-0.095-0.204-0.059-0.048-0.118-0.088-0.175-0.12l0.007-0.045c0.029 0.005 0.082 0.011 0.159 0.018 0.075 0.007 0.154 0.011 0.236 0.018h0.753c0.070-0.005 0.136-0.011 0.202-0.018 0.064-0.005 0.113-0.011 0.148-0.018l0.009 0.045z"></path>
<path fill="#3f3f3f" style="fill: var(--color2, #3f3f3f)" d="M24.915 13.102c-0.057 0.032-0.113 0.070-0.17 0.118-0.059 0.050-0.088 0.138-0.095 0.272-0.005 0.145-0.011 0.329-0.018 0.552 0 0.218-0.002 0.465-0.007 0.744 0 0.277-0.002 0.579-0.007 0.906v1.014c-0.007 0.393-0.052 0.726-0.138 1.005-0.084 0.277-0.2 0.511-0.343 0.697-0.136 0.188-0.291 0.336-0.461 0.445-0.166 0.109-0.331 0.188-0.497 0.243-0.159 0.061-0.311 0.098-0.454 0.109-0.143 0.018-0.254 0.027-0.334 0.027-0.325 0-0.64-0.045-0.942-0.136-0.302-0.084-0.567-0.222-0.797-0.415-0.227-0.193-0.411-0.445-0.547-0.751-0.136-0.309-0.204-0.683-0.204-1.123v-1.965c0-0.29-0.005-0.549-0.009-0.781 0-0.234-0.002-0.424-0.007-0.57-0.007-0.134-0.036-0.222-0.095-0.272-0.057-0.048-0.113-0.086-0.17-0.118l0.007-0.045c0.029 0.007 0.075 0.011 0.138 0.018 0.068 0.007 0.136 0.011 0.204 0.018 0.075 0 0.145 0.005 0.213 0.009h0.309c0.068-0.005 0.141-0.009 0.213-0.009 0.075-0.005 0.143-0.011 0.207-0.018 0.068-0.005 0.116-0.011 0.145-0.018l0.007 0.045c-0.061 0.032-0.123 0.070-0.179 0.118-0.050 0.050-0.079 0.138-0.084 0.272-0.007 0.145-0.011 0.336-0.018 0.57v2.746c0 0.658 0.145 1.144 0.436 1.457 0.293 0.315 0.722 0.472 1.294 0.472 0.166 0 0.354-0.023 0.565-0.064 0.211-0.050 0.409-0.145 0.59-0.291 0.188-0.145 0.345-0.349 0.47-0.615 0.132-0.266 0.197-0.62 0.197-1.060 0-0.477-0.002-0.885-0.007-1.223 0-0.345-0.002-0.638-0.009-0.878 0-0.247-0.002-0.458-0.007-0.633-0.005-0.177-0.011-0.336-0.018-0.481-0.005-0.134-0.036-0.222-0.093-0.272-0.057-0.048-0.113-0.086-0.172-0.118l0.009-0.045c0.064 0.014 0.134 0.025 0.213 0.036 0.079 0.007 0.154 0.009 0.222 0.009 0.064 0 0.134-0.002 0.213-0.009 0.086-0.011 0.161-0.023 0.225-0.036l0.005 0.045z"></path>
<path fill="#3f3f3f" style="fill: var(--color2, #3f3f3f)" d="M31.385 14.654l-0.052 0.018c-0.211-0.47-0.513-0.844-0.903-1.121-0.386-0.279-0.869-0.418-1.452-0.418-0.325 0-0.635 0.070-0.93 0.213-0.295 0.136-0.552 0.331-0.776 0.583-0.216 0.247-0.39 0.547-0.522 0.901-0.132 0.352-0.2 0.742-0.2 1.169 0 0.424 0.068 0.815 0.2 1.167s0.306 0.656 0.522 0.91c0.225 0.247 0.481 0.438 0.776 0.574s0.606 0.204 0.93 0.204c0.576 0 1.046-0.093 1.407-0.279 0.368-0.191 0.676-0.481 0.93-0.872l0.052 0.018-0.018 0.595c-0.136 0.148-0.297 0.281-0.477 0.397-0.182 0.113-0.377 0.209-0.588 0.288-0.204 0.075-0.418 0.129-0.64 0.168-0.222 0.043-0.445 0.064-0.667 0.064-0.463 0-0.906-0.077-1.328-0.232-0.42-0.154-0.79-0.37-1.11-0.649-0.318-0.284-0.57-0.624-0.758-1.019-0.186-0.402-0.279-0.847-0.279-1.334 0-0.49 0.093-0.931 0.279-1.328 0.188-0.402 0.44-0.744 0.758-1.028 0.32-0.284 0.69-0.502 1.11-0.649 0.422-0.154 0.865-0.232 1.328-0.232 0.222 0 0.445 0.018 0.667 0.054 0.222 0.039 0.436 0.095 0.64 0.177 0.211 0.075 0.406 0.17 0.588 0.288 0.179 0.111 0.34 0.241 0.477 0.388l0.036 0.983z"></path>
<path fill="#3f3f3f" style="fill: var(--color2, #3f3f3f)" d="M40.792 18.644c-0.029-0.005-0.079-0.009-0.15-0.016-0.064 0-0.134-0.002-0.209-0.007-0.075 0-0.148-0.002-0.218-0.009h-0.522c-0.070 0.007-0.141 0.011-0.209 0.018-0.064 0.005-0.113 0.009-0.148 0.016l-0.009-0.034c0.059-0.027 0.116-0.064 0.175-0.109 0.057-0.045 0.089-0.129 0.095-0.252 0.005-0.134 0.007-0.275 0.007-0.42 0.007-0.145 0.009-0.311 0.009-0.497v-2.966c0-0.184-0.002-0.347-0.009-0.486 0-0.148-0.002-0.286-0.007-0.422-0.005-0.123-0.036-0.207-0.095-0.252-0.059-0.050-0.116-0.088-0.175-0.118l0.009-0.032c0.034 0.011 0.084 0.018 0.148 0.025 0.068 0 0.138 0.002 0.209 0.007 0.075 0.005 0.148 0.009 0.218 0.009h0.304c0.070-0.007 0.143-0.009 0.218-0.009 0.075-0.005 0.145-0.011 0.209-0.016 0.070-0.005 0.12-0.011 0.15-0.018l0.007 0.034c-0.064 0.030-0.125 0.068-0.184 0.118-0.052 0.045-0.079 0.129-0.086 0.252-0.005 0.134-0.011 0.275-0.018 0.42v3.951c0.007 0.145 0.011 0.284 0.018 0.42 0.005 0.123 0.034 0.207 0.086 0.252 0.059 0.045 0.12 0.082 0.184 0.109l-0.007 0.032z"></path>
</symbol>
<symbol id="icon-versace" viewBox="0 0 53 32">
<path d="M0.113 0.113h53.106v31.773h-53.106v-31.773z"></path>
<path fill="#3f3f3f" style="fill: var(--color2, #3f3f3f)" d="M38.863 12.92h3.003v0.481c-0.086-0.030-0.179-0.045-0.27-0.045h-1.727v2.245h1.679c0.12 0 0.229-0.014 0.318-0.036v0.479c-0.077-0.018-0.182-0.027-0.311-0.027h-1.686v2.322h1.675c0.091 0 0.202-0.014 0.322-0.043v0.517h-2.998c0.023-0.086 0.036-0.177 0.036-0.279v-5.327c0-0.118-0.014-0.213-0.041-0.286zM38.166 14.45l-0.867-0.007c-0.043-0.49-0.322-0.965-0.937-1.051-1.316-0.12-1.688 1.332-1.654 2.394 0.034 1.024 0.197 2.599 1.557 2.599 0.57 0 1.117-0.59 1.101-1.085l0.801-0.007c-0.057 1.024-1.228 1.616-1.784 1.636-1.902 0.066-2.698-1.207-2.739-3.025-0.036-1.645 0.635-3.105 2.517-3.105 1.609 0.020 1.92 0.978 2.006 1.65zM24.635 18.142l0.574-0.483c0.3 0.497 0.547 0.724 1.142 0.724 0.604 0 1.11-0.37 1.11-1.019 0-0.322-0.129-0.586-0.386-0.783-0.116-0.091-0.411-0.25-0.876-0.472-0.697-0.336-1.373-0.772-1.373-1.645 0-1.105 0.933-1.593 1.92-1.63 0.583-0.020 1.307 0.302 1.6 0.665l-0.583 0.452c-0.104-0.195-0.259-0.359-0.447-0.472s-0.406-0.175-0.626-0.175c-0.744 0-1.334 0.867-0.717 1.464 0.157 0.152 0.477 0.34 0.965 0.565 0.778 0.368 1.441 0.806 1.441 1.772 0 0.334-0.086 0.647-0.259 0.93-0.347 0.576-0.926 0.862-1.736 0.862-0.93 0-1.112-0.213-1.748-0.756zM16.447 12.92h3v0.481c-0.086-0.030-0.179-0.045-0.27-0.045h-1.727v2.245h1.679c0.12 0 0.229-0.014 0.318-0.036v0.479c-0.075-0.018-0.182-0.027-0.309-0.027h-1.689v2.322h1.675c0.093 0 0.202-0.014 0.322-0.043v0.517h-2.996c0.020-0.086 0.034-0.177 0.034-0.279v-5.327c0-0.118-0.014-0.213-0.039-0.286zM11.2 12.92h1.089v0.054c0 0.048 0.016 0.113 0.043 0.197l1.539 4.648 1.577-4.668c0.025-0.079 0.039-0.154 0.039-0.232h0.531c-0.054 0.095-0.095 0.177-0.12 0.252l-1.802 5.399c-0.018 0.050-0.034 0.132-0.045 0.241h-0.896c-0.014-0.082-0.032-0.163-0.059-0.241l-1.766-5.356c-0.020-0.050-0.064-0.152-0.127-0.295h-0.002zM22.788 15.991c0.715-0.141 1.264-0.69 1.264-1.477 0-1.030-0.86-1.593-1.82-1.593h-1.759c0.025 0.091 0.039 0.184 0.039 0.284v5.324c0 0.113-0.014 0.211-0.039 0.284h1.046c-0.025-0.093-0.039-0.188-0.036-0.284v-2.447l0.334 0.036 1.754 2.694h1.053l-1.836-2.821zM22.607 15.542c-0.191 0.136-0.418 0.202-0.679 0.202h-0.447v-2.394h0.399c0.343 0 0.608 0.084 0.799 0.256 0.259 0.236 0.39 0.554 0.39 0.953 0 0.431-0.154 0.758-0.463 0.983zM33.468 18.567l-1.954-5.451c-0.020-0.064-0.034-0.129-0.036-0.195h-0.847c0 0.070-0.011 0.143-0.039 0.218l-1.893 5.429c-0.025 0.077-0.066 0.159-0.118 0.245h0.545c-0.002-0.084 0.009-0.166 0.034-0.245l0.561-1.602h2.158l0.554 1.602c0.029 0.086 0.043 0.168 0.043 0.245h1.132c-0.066-0.093-0.113-0.177-0.141-0.245zM29.869 16.533l0.912-2.662 0.937 2.662h-1.85z"></path>
</symbol>
<symbol id="icon-fendi" viewBox="0 0 53 32">
<path d="M0.113 0.113h53.106v31.773h-53.106v-31.773z"></path>
<path fill="#3f3f3f" style="fill: var(--color2, #3f3f3f)" d="M15.108 12.902c1.373 0 2.746 0.002 4.119 0 0.002 0.374 0.005 0.751 0 1.126-0.969 0-1.938 0-2.91 0 0 0.472 0 0.944 0 1.414 0.851-0.002 1.7 0 2.549 0 0.005 0.374-0.002 0.749 0.002 1.121-0.851 0-1.7 0.002-2.549 0-0.002 0.887-0.002 1.775-0.002 2.662-0.402-0.005-0.803-0.005-1.207 0-0.005-2.108 0-4.214-0.002-6.323z"></path>
<path fill="#3f3f3f" style="fill: var(--color2, #3f3f3f)" d="M20.028 19.225c0-2.108 0-4.217 0-6.325 1.421 0.005 2.839 0.002 4.258 0.002 0 0.374 0 0.751 0.002 1.126-1.026 0-2.049-0.002-3.075 0.002 0.005 0.44 0 0.881 0.002 1.323 0.94-0.005 1.881-0.002 2.823-0.002-0.005 0.374 0 0.749-0.005 1.121-0.94 0.002-1.879 0.002-2.819 0-0.002 0.542 0.002 1.083-0.002 1.623 1.071 0.005 2.142 0 3.214 0.002 0.002 0.374 0.002 0.749 0 1.126-1.466 0.002-2.932-0.005-4.398 0.002z"></path>
<path fill="#3f3f3f" style="fill: var(--color2, #3f3f3f)" d="M25.334 12.9c0.427 0.005 0.853 0.005 1.28 0 0.769 1.471 1.539 2.939 2.31 4.407 0.002-1.468 0.002-2.937 0-4.403 0.374-0.002 0.751 0 1.128-0.002 0 2.106 0 4.214 0 6.323-0.404-0.005-0.806-0.002-1.207-0.002-0.79-1.505-1.58-3.007-2.374-4.509 0 1.502 0.002 3.007 0 4.512-0.379-0.005-0.758-0.005-1.137 0 0.002-2.108 0.002-4.217 0-6.325z"></path>
<path fill="#3f3f3f" style="fill: var(--color2, #3f3f3f)" d="M31.206 12.902c0.878 0.002 1.757 0 2.635 0.002 0.483 0.007 0.976 0.145 1.348 0.468 0.388 0.311 0.615 0.778 0.758 1.248 0.12 0.429 0.163 0.876 0.17 1.321-0.018 0.688-0.113 1.391-0.424 2.011-0.195 0.429-0.522 0.797-0.931 1.026-0.3 0.166-0.64 0.234-0.978 0.243-0.858 0.005-1.718-0.002-2.576 0.005-0.005-2.108-0.002-4.217-0.002-6.323zM32.404 14.003c-0.005 1.373-0.002 2.746-0.002 4.117 0.384 0 0.765 0 1.146 0 0.157-0.005 0.315-0.025 0.461-0.088 0.279-0.118 0.477-0.37 0.608-0.638 0.222-0.49 0.27-1.039 0.256-1.573-0.014-0.508-0.091-1.055-0.42-1.459-0.2-0.25-0.529-0.334-0.831-0.354-0.406-0.007-0.812 0.002-1.219-0.005z"></path>
<path fill="#3f3f3f" style="fill: var(--color2, #3f3f3f)" d="M36.925 19.227c-0.005-2.108-0.005-4.219 0-6.327 0.402 0.007 0.803 0.002 1.205 0.002 0.002 2.106 0.005 4.214 0 6.321-0.402 0.002-0.803-0.007-1.205 0.005z"></path>
</symbol>
<symbol id="icon-dior" viewBox="0 0 53 32">
<path d="M0.113 0.113h53.106v31.773h-53.106v-31.773z"></path>
<path fill="#3f3f3f" style="fill: var(--color2, #3f3f3f)" d="M33.546 16.883c-0.007-0.039-0.007-0.073 0.184-0.132 0.186-0.057 0.645-0.213 0.921-0.365 0.279-0.157 0.325-0.177 0.39-0.134 0.064 0.043 0.045 0.148 0.045 0.222v0.753c0.102-0.168 0.436-0.722 0.701-0.885 0.209-0.129 0.281-0.141 0.411-0.143 0.154-0.002 0.522 0.093 0.538 0.479 0.011 0.302-0.211 0.424-0.352 0.404-0.113-0.016-0.195-0.12-0.263-0.225-0.068-0.107-0.177-0.17-0.284-0.134-0.109 0.036-0.713 0.429-0.749 0.989-0.025 0.411 0 1.691 0 1.691 0 0.195 0.075 0.27 0.161 0.322s0.404 0.054 0.495 0.068c0.091 0.011 0.086 0.034 0.086 0.061s0 0.041-0.079 0.041h-2.129c-0.068 0-0.095-0.014-0.095-0.054 0-0.054 0.089-0.045 0.157-0.054s0.429 0.020 0.531-0.161c0.077-0.118 0.068-0.309 0.068-0.309l-0.011-2.251c0-0.182-0.054-0.209-0.104-0.236-0.050-0.029-0.134-0.045-0.309 0.016-0.168 0.054-0.281 0.104-0.313 0.036z"></path>
<path fill="#3f3f3f" style="fill: var(--color2, #3f3f3f)" d="M26.104 16.883c-0.029-0.054 0.025-0.091 0.182-0.132 0.177-0.048 0.563-0.166 0.869-0.338 0.304-0.172 0.356-0.191 0.422-0.17 0.066 0.023 0.059 0.136 0.059 0.229v2.912c0 0.163 0.020 0.232 0.095 0.3s0.259 0.109 0.499 0.109c0.109 0 0.143 0.011 0.143 0.059 0 0.045-0.034 0.045-0.077 0.045h-2.113c-0.064 0-0.079-0.027-0.079-0.054 0-0.036 0.029-0.057 0.127-0.057 0.082 0 0.465 0.027 0.552-0.17 0.034-0.075 0.050-0.182 0.050-0.281v-2.31c0-0.175-0.136-0.252-0.293-0.216-0.184 0.043-0.397 0.148-0.436 0.075z"></path>
<path fill="#3f3f3f" style="fill: var(--color2, #3f3f3f)" d="M27.18 14.868c0.288 0 0.52-0.232 0.52-0.517 0-0.288-0.232-0.52-0.52-0.52-0.286 0-0.517 0.232-0.517 0.52 0 0.286 0.232 0.517 0.517 0.517z"></path>
<path fill="#3f3f3f" style="fill: var(--color2, #3f3f3f)" d="M29.719 18.172c0.104 0.944 0.667 1.679 1.364 1.555 0.699-0.123 1.048-0.79 0.965-1.859-0.086-1.085-0.624-1.627-1.348-1.561-0.747 0.068-1.087 0.919-0.98 1.866zM30.409 16.138c0.901-0.168 2.181 0.032 2.472 1.439 0.291 1.409-0.679 2.158-1.518 2.342-0.824 0.177-2.22 0.050-2.471-1.464-0.227-1.359 0.76-2.174 1.518-2.317z"></path>
<path fill="#3f3f3f" style="fill: var(--color2, #3f3f3f)" d="M19.756 19.668h0.522c1.94 0 2.462-0.179 3.146-1.087s0.765-2.21 0.765-2.651c0-0.44-0.118-1.546-0.801-2.481s-1.825-1.178-2.823-1.178h-0.812c-0.193 0-0.202 0.086-0.202 0.22v7.006c0 0.152 0.054 0.17 0.207 0.17zM16.595 19.833c0-0.070 0.091-0.084 0.177-0.086 0.989-0.027 1.173-0.061 1.287-0.179 0.061-0.064 0.152-0.118 0.152-0.574v-6.302c0-0.565-0.688-0.477-1.173-0.527-0.17-0.016-0.184-0.039-0.184-0.088s0.032-0.073 0.12-0.077h3.983c4.378 0 4.6 3.2 4.6 4.053 0 1.834-1.212 3.851-3.747 3.851h-5.088c-0.061 0-0.127-0.007-0.127-0.070z"></path>
</symbol>
<symbol id="icon-burb" viewBox="0 0 53 32">
<path d="M0.113 0.113h53.106v31.773h-53.106v-31.773z"></path>
<path fill="#3f3f3f" style="fill: var(--color2, #3f3f3f)" d="M36.106 18.458l-1.187-2.081c0.527-0.252 0.86-0.783 0.862-1.366 0-0.837-0.683-1.518-1.521-1.518h-2.537v4.966h1.128v-1.927h0.899l1.098 1.927h1.257zM32.833 15.571v-1.119h1.216l-0.005 0.002c0.37 0.020 0.606 0.234 0.606 0.558 0 0.32-0.254 0.545-0.631 0.558h-1.187zM27.111 18.458v-4.966h3.711v0.946h-2.551v0.994h2.238v0.969h-2.238v1.060h2.678v0.996h-3.838zM21.819 18.458l-1.187-2.081c0.527-0.252 0.86-0.783 0.86-1.366 0-0.837-0.681-1.518-1.518-1.518h-2.54v4.966h1.13v-1.927h0.899l1.098 1.927h1.257zM18.546 15.571v-1.119h1.216l-0.005 0.002c0.37 0.020 0.606 0.234 0.606 0.558 0 0.32-0.254 0.545-0.631 0.558h-1.187zM14.427 18.58c1.357 0 2.17-0.781 2.17-2.088v-2.998h-1.16v2.921c0 0.706-0.368 1.112-1.010 1.112v0c-0.642 0-1.010-0.406-1.010-1.112v-2.921h-1.16v2.998c0 1.307 0.81 2.088 2.17 2.088v0 0zM10.742 15.707c0.669 0.229 0.994 0.797 0.994 1.346 0 0.774-0.626 1.403-1.4 1.405h-2.742v-4.968h2.526c0.656 0.007 1.187 0.542 1.187 1.198 0.002 0.415-0.213 0.801-0.565 1.019v0zM8.731 17.532h1.269c0.397 0 0.606-0.297 0.606-0.592 0-0.236-0.188-0.57-0.606-0.57h-1.269v1.162zM9.659 15.444c0.293 0 0.522-0.225 0.522-0.513 0-0.279-0.238-0.513-0.522-0.513h-0.928v1.026h0.928z"></path>
<path fill="#3f3f3f" style="fill: var(--color2, #3f3f3f)" d="M25.496 15.707c0.667 0.227 0.994 0.797 0.994 1.346 0 0.772-0.629 1.403-1.4 1.405h-2.742v-4.968h2.526c0.656 0.007 1.187 0.54 1.187 1.198 0 0.415-0.213 0.799-0.565 1.019v0zM23.485 17.53h1.269c0.397 0 0.606-0.297 0.606-0.59 0-0.236-0.188-0.57-0.606-0.57h-1.269v1.16zM24.413 15.444c0.293 0 0.522-0.227 0.522-0.513 0-0.279-0.241-0.515-0.522-0.515h-0.928v1.028h0.928z"></path>
<path fill="#3f3f3f" style="fill: var(--color2, #3f3f3f)" d="M41.019 18.458l-1.187-2.081c0.524-0.252 0.86-0.783 0.86-1.366 0-0.837-0.681-1.518-1.518-1.518h-2.54v4.966h1.128v-1.927h0.899l1.101 1.927h1.257zM37.744 15.571v-1.119h1.216l-0.005 0.002c0.37 0.020 0.606 0.234 0.606 0.558 0 0.32-0.252 0.545-0.629 0.558h-1.189zM42.667 18.458v-2.024l-1.97-2.941h1.448l1.135 1.707 1.139-1.707h1.448l-1.977 2.941v2.024h-1.223z"></path>
</symbol>
<symbol id="icon-chanel" viewBox="0 0 53 32">
<path d="M0.113 0.113h53.106v31.773h-53.106v-31.773z"></path>
<path fill="#3f3f3f" style="fill: var(--color2, #3f3f3f)" d="M15.056 17.051c-0.005 0.007-0.011 0.023-0.016 0.034-0.418 0.79-1.237 1.325-2.172 1.325-1.357 0-2.469-1.135-2.469-2.54 0-1.393 1.112-2.537 2.469-2.537 0.94 0 1.763 0.547 2.176 1.348 0.011 0.016 0.016 0.023 0.027 0.045 0.005 0.005-0.79 0.576-0.797 0.565-0.005-0.016-0.007-0.027-0.016-0.034-0.227-0.57-0.769-0.949-1.391-0.935-0.831 0.007-1.514 0.694-1.514 1.548 0 0.862 0.683 1.559 1.514 1.559 0.604 0 1.128-0.372 1.369-0.896 0.011-0.020 0.016-0.036 0.023-0.052l0.797 0.57z"></path>
<path fill="#3f3f3f" style="fill: var(--color2, #3f3f3f)" d="M16.079 13.379h0.951v1.775h2.496v-1.775h0.96v4.936h-0.96v-2.17h-2.496v2.17h-0.951v-4.936z"></path>
<path fill="#3f3f3f" style="fill: var(--color2, #3f3f3f)" d="M33.904 18.315v-4.936h3.452v0.996h-2.49v0.987h2.301v0.985h-2.301v0.985h2.841v0.983h-3.804z"></path>
<path fill="#3f3f3f" style="fill: var(--color2, #3f3f3f)" d="M39.056 18.315v-4.936h0.967v3.953h2.683v0.983h-3.649z"></path>
<path fill="#3f3f3f" style="fill: var(--color2, #3f3f3f)" d="M28.718 18.315h-0.967v-4.936h1.341l2.115 2.968v-2.969h0.958v4.936h-0.765l-2.683-3.722v3.722z"></path>
<path fill="#3f3f3f" style="fill: var(--color2, #3f3f3f)" d="M24.116 14.375l-0.842 1.972h1.723l-0.881-1.972zM22.84 17.332l-0.44 0.983h-1.144l2.186-4.936h1.339l2.201 4.936h-1.144l-0.443-0.983h-2.555z"></path>
</symbol>
</defs>
</svg>
