<svg aria-hidden="true" style="position: absolute; width: 0; height: 0; overflow: hidden;" version="1.1" xmlns="http://www.w3.org/2000/svg" xmlns:xlink="http://www.w3.org/1999/xlink">
<defs>
<symbol id="icon-base" viewBox="0 0 27 32">
<path fill="#fff" style="fill: var(--color1, #fff)" d="M22.234 9.947l1.087 18.415h-19.487l1.087-18.415h17.313zM25.66 6.325h-24.151l-1.298 22.038-0.211 3.638h27.17l-0.226-3.638-1.283-22.038z"></path>
<path fill="none" stroke="#fff" style="stroke: var(--color1, #fff)" stroke-linejoin="miter" stroke-linecap="butt" stroke-miterlimit="4" stroke-width="3.6226" d="M7.547 6.325v-3.019c0-0.83 0.664-1.509 1.509-1.509h9.057c0.83 0 1.509 0.679 1.509 1.509v3.019"></path>
</symbol>
<symbol id="icon-heart" viewBox="0 0 34 32">
<path fill="#fff" style="fill: var(--color1, #fff)" d="M16.941 1.616q0.528-0.311 1.103-0.575 1.368-0.622 2.798-0.87 1.010-0.171 2.036-0.171 1.43 0 2.782 0.326 0.746 0.187 1.461 0.466 1.135 0.466 2.129 1.15 0.73 0.497 1.368 1.103 0.839 0.808 1.476 1.756 0.528 0.793 0.917 1.679 0.357 0.839 0.559 1.71 0.311 1.228 0.311 2.518 0 0.373-0.031 0.746-0.14 2.176-1.135 4.305-0.964 2.067-2.829 4.258-1.461 1.741-3.87 3.963-1.43 1.321-4.709 4.181l-4.367 3.823-4.367-3.823q-3.295-2.86-4.725-4.181-2.409-2.223-3.87-3.963-1.865-2.191-2.829-4.258-0.995-2.129-1.135-4.305-0.016-0.373-0.016-0.746 0-1.29 0.295-2.518 0.202-0.87 0.56-1.71 0.389-0.886 0.917-1.679 0.637-0.948 1.476-1.756 0.637-0.606 1.368-1.103 0.995-0.684 2.129-1.15 0.715-0.28 1.461-0.466 1.352-0.326 2.782-0.326 1.026 0 2.036 0.171 1.43 0.249 2.798 0.87 0.575 0.264 1.119 0.575zM15.651 5.222c-1.321-0.933-2.969-1.508-4.663-1.508-4.072 0-7.258 3.062-7.258 6.994 0 4.787 4.492 8.719 11.283 14.656l1.927 1.663 1.912-1.663c6.807-5.937 11.299-9.869 11.299-14.656 0-3.932-3.202-6.994-7.274-6.994-1.694 0-3.341 0.575-4.663 1.508-0.482 0.342-0.901 0.715-1.274 1.15-0.389-0.435-0.808-0.808-1.29-1.15z"></path>
</symbol>
<symbol id="icon-search" viewBox="0 0 32 32">
<path fill="none" stroke="#fff" style="stroke: var(--color1, #fff)" stroke-linejoin="miter" stroke-linecap="butt" stroke-miterlimit="4" stroke-width="4.5583" d="M21.097 11.688c0 5.196-4.212 9.409-9.409 9.409s-9.409-4.212-9.409-9.409c0-5.196 4.212-9.409 9.409-9.409s9.409 4.212 9.409 9.409z"></path>
<path fill="none" stroke="#fff" style="stroke: var(--color1, #fff)" stroke-linejoin="miter" stroke-linecap="butt" stroke-miterlimit="4" stroke-width="4.5583" d="M21.804 21.804l8.585 8.585"></path>
</symbol>
<symbol id="icon-logo" viewBox="0 0 68 32">
<path fill="none" stroke="#fff" style="stroke: var(--color1, #fff)" stroke-linejoin="miter" stroke-linecap="butt" stroke-miterlimit="4" stroke-width="2.1818" d="M1.091 7.636h59.636v23.273h-59.636v-23.273z"></path>
<path fill="#fff" style="fill: var(--color1, #fff)" d="M12.015 24.625c0.516 0.676 1.382 1.011 2.604 1.011q1.651 0 2.385-0.815 0.044-0.058 0.087-0.109c0.473-0.633 0.713-1.513 0.713-2.647v-0.945h-2.065v1.062q0 0.64-0.073 1.033c-0.036 0.247-0.138 0.451-0.305 0.604-0.153 0.16-0.4 0.24-0.727 0.24-0.458 0-0.771-0.145-0.945-0.436-0.175-0.305-0.262-0.785-0.262-1.455v-5.105q0-0.64 0.073-1.033c0.058-0.276 0.175-0.487 0.349-0.64 0.175-0.167 0.436-0.247 0.785-0.247 0.342 0 0.589 0.073 0.742 0.233 0.167 0.145 0.269 0.335 0.305 0.582 0.036 0.233 0.058 0.553 0.058 0.975v1.018h2.065v-0.989q0-1.644-0.727-2.516c-0.487-0.582-1.302-0.873-2.458-0.873q-1.695 0-2.473 0.844-0.065 0.073-0.131 0.16-0.756 1.004-0.756 2.938v4.204q0 1.869 0.756 2.909zM36.393 24.742c0.531 0.596 1.331 0.895 2.4 0.895 0.582 0 1.098-0.116 1.542-0.364s0.793-0.596 1.033-1.025c0.255-0.436 0.378-0.938 0.378-1.498 0-0.72-0.153-1.353-0.465-1.891-0.313-0.545-0.742-1.055-1.295-1.527l-1.469-1.295c-0.342-0.291-0.589-0.567-0.742-0.815-0.145-0.262-0.218-0.582-0.218-0.96 0-0.32 0.087-0.582 0.262-0.785 0.175-0.218 0.415-0.32 0.727-0.32 0.436 0 0.727 0.16 0.873 0.495 0.153 0.32 0.247 0.8 0.276 1.44l1.847-0.32c-0.065-0.982-0.327-1.76-0.771-2.327-0.436-0.582-1.164-0.873-2.182-0.873-0.953 0-1.695 0.255-2.24 0.764-0.531 0.509-0.8 1.222-0.8 2.145 0 0.618 0.109 1.149 0.335 1.6 0.233 0.444 0.575 0.858 1.033 1.251l1.484 1.295c0.444 0.385 0.771 0.742 0.975 1.076 0.211 0.32 0.32 0.713 0.32 1.178 0 0.335-0.080 0.611-0.247 0.815-0.153 0.189-0.4 0.291-0.727 0.291-0.444 0-0.778-0.196-0.989-0.582q-0.305-0.596-0.349-1.716l-1.847 0.364q0.073 1.789 0.858 2.691zM23.593 13.702h-2.836v11.782h2.138v-5.396h1.018l1.411 5.396h2.153l-1.644-5.804c0.531-0.218 0.909-0.553 1.12-1.018 0.225-0.48 0.335-1.091 0.335-1.833 0-1.149-0.305-1.956-0.916-2.415-0.611-0.48-1.535-0.713-2.778-0.713zM32.545 13.702h-2.124v11.782h2.124v-11.782zM47.927 13.702h-3.462v11.782h2.138v-5.236h1.178q1.556 0 2.349-0.778 0.807-0.8 0.807-2.422c0-2.233-1.004-3.345-3.011-3.345zM24.873 18.327c-0.255 0.276-0.684 0.422-1.295 0.422h-0.684v-3.578h0.8c0.589 0 0.996 0.138 1.222 0.422 0.233 0.276 0.349 0.727 0.349 1.353q0 0.96-0.393 1.382zM48.611 18.371c-0.204 0.24-0.596 0.364-1.178 0.364h-0.829v-3.52h0.829c0.436 0 0.756 0.058 0.96 0.189 0.218 0.124 0.356 0.313 0.422 0.567 0.073 0.24 0.102 0.596 0.102 1.062 0 0.64-0.102 1.084-0.305 1.338z"></path>
<path fill="none" stroke="#fff" style="stroke: var(--color1, #fff)" stroke-linejoin="miter" stroke-linecap="butt" stroke-miterlimit="4" stroke-width="2.1818" d="M65.091 27.636v-3.273h2.182v-23.273h-59.636v2.182h-2.909"></path>
</symbol>
</defs>
</svg>
