<svg aria-hidden="true" style="position: absolute; width: 0; height: 0; overflow: hidden;" version="1.1" xmlns="http://www.w3.org/2000/svg" xmlns:xlink="http://www.w3.org/1999/xlink">
<defs>
<symbol id="icon-facebook" viewBox="0 0 32 32">
<path fill="#fff" style="fill: var(--color1, #fff)" d="M0 0v32h32v-32h-32zM21.166 8.792h-2.499c-0.503 0-1.006 0.518-1.006 0.899v2.545h3.49c-0.137 1.966-0.427 3.749-0.427 3.749h-3.078v11.078h-4.587v-11.078h-2.24v-3.733h2.24v-3.048c0-0.549-0.122-4.282 4.709-4.282h3.398v3.87z"></path>
</symbol>
<symbol id="icon-instagram" viewBox="0 0 32 32">
<path fill="#fff" style="fill: var(--color1, #fff)" d="M5.821 32h26.179v-32h-32v32h5.821zM21.867 4.998c0-0.396 0.137-0.731 0.411-1.021 0.29-0.274 0.625-0.427 1.021-0.427h3.627c0.411 0 0.747 0.152 1.021 0.427 0.29 0.29 0.427 0.625 0.427 1.021v3.429c0 0.411-0.137 0.747-0.427 1.021-0.274 0.274-0.61 0.427-1.021 0.427h-3.627c-0.396 0-0.731-0.152-1.021-0.427-0.274-0.274-0.411-0.61-0.411-1.021v-3.429zM20.571 12.754c1.25 1.204 1.874 2.682 1.874 4.404s-0.625 3.185-1.874 4.404c-1.265 1.219-2.773 1.829-4.556 1.829-1.768 0-3.276-0.61-4.526-1.829-1.265-1.219-1.89-2.682-1.89-4.404s0.625-3.2 1.89-4.404c1.25-1.219 2.758-1.829 4.526-1.829 1.783 0 3.291 0.61 4.556 1.829zM8.594 4.998c0-0.396 0.137-0.731 0.411-1.021 0.29-0.274 0.625-0.427 1.021-0.427h0.777c0.396 0 0.731 0.152 1.021 0.427 0.274 0.29 0.411 0.625 0.411 1.021v3.429c0 0.411-0.137 0.747-0.411 1.021-0.29 0.274-0.625 0.427-1.021 0.427h-0.777c-0.396 0-0.731-0.152-1.021-0.427-0.274-0.274-0.411-0.61-0.411-1.021v-3.429zM3.55 4.998c0-0.396 0.137-0.731 0.427-1.021 0.274-0.274 0.61-0.427 1.021-0.427h0.762c0.396 0 0.747 0.152 1.021 0.427 0.274 0.29 0.411 0.625 0.411 1.021v3.429c0 0.411-0.137 0.747-0.411 1.021s-0.625 0.427-1.021 0.427h-0.762c-0.411 0-0.747-0.152-1.021-0.427-0.29-0.274-0.427-0.61-0.427-1.021v-3.429zM3.55 27.855v-13.501h2.941c-0.274 0.869-0.411 1.783-0.411 2.728 0 2.667 0.975 4.937 2.91 6.827 1.95 1.874 4.282 2.819 7.025 2.819 1.798 0 3.474-0.427 4.998-1.295 1.524-0.853 2.743-2.027 3.627-3.505s1.326-3.093 1.326-4.846c0-0.945-0.137-1.859-0.411-2.728h2.819v13.501c0 0.35-0.137 0.655-0.381 0.899s-0.549 0.366-0.899 0.366h-22.263c-0.366 0-0.67-0.122-0.914-0.366s-0.366-0.549-0.366-0.899z"></path>
</symbol>
<symbol id="icon-twitter" viewBox="0 0 32 32">
<path fill="#fff" style="fill: var(--color1, #fff)" d="M0 0v32h32v-32h-32zM24.808 11.474c0 0.198 0 0.396 0 0.594 0 6.004-4.571 12.922-12.922 12.922-2.575 0-4.952-0.747-6.964-2.042 0.35 0.046 0.716 0.061 1.082 0.061 2.118 0 4.084-0.716 5.638-1.935-1.981-0.046-3.672-1.356-4.236-3.154 0.274 0.046 0.549 0.076 0.853 0.076 0.411 0 0.808-0.061 1.189-0.168-2.072-0.411-3.642-2.24-3.642-4.45 0-0.015 0-0.030 0-0.061 0.61 0.35 1.31 0.549 2.057 0.579-1.219-0.823-2.027-2.21-2.027-3.794 0-0.823 0.229-1.615 0.625-2.286 2.24 2.758 5.592 4.571 9.371 4.754-0.091-0.335-0.122-0.686-0.122-1.036 0-2.514 2.027-4.541 4.541-4.541 1.31 0 2.484 0.549 3.322 1.432 1.036-0.198 2.011-0.579 2.88-1.097-0.335 1.051-1.051 1.95-1.996 2.514 0.914-0.122 1.798-0.366 2.606-0.716-0.61 0.899-1.371 1.707-2.255 2.347z"></path>
</symbol>
</defs>
</svg>
