<svg xmlns="http://www.w3.org/2000/svg" aria-hidden="true" style="position:absolute;width:0;height:0;overflow:hidden">
  <defs>
    <symbol id="icon-bunny" viewBox="0 0 27 32">
      <path d="m16.941 16.199.568-.349c1.092-.699 2.052-1.659 2.663-2.794.699-1.135 1.048-2.489 1.048-3.842v-.699h.699c1.965 0 3.537-1.616 3.537-3.537 0-1.965-1.616-3.537-3.537-3.537a3.515 3.515 0 0 0-2.794 1.397l-.437.568-.568-.437a7.395 7.395 0 0 0-4.104-1.528 8.574 8.574 0 0 0-2.358.175 8.552 8.552 0 0 0-2.489.917c-.087.044-.164.098-.24.153s-.153.109-.24.153l-.524.349-.393-.48a3.455 3.455 0 0 0-2.707-1.31c-1.965 0-3.537 1.615-3.537 3.537 0 1.965 1.616 3.537 3.537 3.537h.699v.699c0 1.877.655 3.711 1.921 5.108a7.787 7.787 0 0 0 2.576 1.921c1.004.48 2.096.699 3.231.699v1.397c-1.31 0-2.62-.262-3.799-.83a9.846 9.846 0 0 1-2.707-1.921 7.7 7.7 0 0 0-1.79.917c-.655.48-1.266 1.048-1.746 1.703-1.048 1.354-1.572 2.969-1.572 4.672a7.74 7.74 0 0 0 2.27 5.458c1.441 1.485 3.406 2.27 5.458 2.27h5.545c.742 0 1.397-.349 1.79-1.004s.393-1.397.044-2.052c-.655-1.179-1.572-2.183-2.751-2.882-1.223-.699-2.576-1.092-3.973-1.092v-1.397c1.659 0 3.275.48 4.672 1.31 1.354.786 2.489 1.965 3.275 3.362l1.572 2.751c.262.48.699.83 1.223.961s1.092.087 1.572-.175.83-.699 1.004-1.266.087-1.135-.175-1.616L16.942 16.2zm5.632-6.331a8.756 8.756 0 0 1-1.179 3.886c-.655 1.179-1.528 2.139-2.794 2.794l5.807 10.13c.437.83.568 1.79.306 2.707s-.873 1.659-1.703 2.096a3.4 3.4 0 0 1-1.616.393c-.306 0-.655-.044-.961-.131-.873-.262-1.615-.83-2.052-1.616l-.218-.393c-.044.066-.076.131-.109.197s-.065.131-.109.196a3.447 3.447 0 0 1-2.969 1.703H9.431a8.957 8.957 0 0 1-3.537-.699c-1.048-.48-2.052-1.135-2.882-1.965s-1.485-1.79-1.965-2.882a9.626 9.626 0 0 1-.699-3.537c0-1.004.175-1.965.48-2.925.306-.917.786-1.746 1.354-2.532a9.784 9.784 0 0 1 2.052-1.965 12.373 12.373 0 0 1 1.659-.917 9.125 9.125 0 0 1-1.659-4.585c-1.048-.131-2.008-.611-2.794-1.397C.523 7.465-.001 6.287-.001 4.933S.523 2.357 1.44 1.44C2.401.523 3.623-.001 4.933-.001s2.489.48 3.406 1.354c.022 0 .033-.011.044-.022s.022-.022.044-.022c.917-.48 1.877-.83 2.838-1.048s1.877-.262 2.794-.218c1.572.131 3.056.611 4.323 1.441.393-.393.786-.699 1.266-.917a4.919 4.919 0 0 1 2.227-.524c1.354 0 2.576.524 3.493 1.441.917.961 1.441 2.139 1.441 3.493s-.524 2.576-1.441 3.493a4.639 4.639 0 0 1-2.794 1.397zm-14.19-.655a.988.988 0 0 1 1.004-1.004c.524 0 1.004.437 1.004 1.004s-.437 1.004-1.004 1.004a.988.988 0 0 1-1.004-1.004zm3.406.698c0-.961.786-1.703 1.703-1.703.961 0 1.703.742 1.703 1.703v1.703c0 .961-.786 1.703-1.703 1.703a1.705 1.705 0 0 1-1.703-1.703V9.911zm5.851-1.702c-.568 0-1.004.437-1.004 1.004s.437 1.004 1.004 1.004c.568 0 1.004-.437 1.004-1.004s-.437-1.004-1.004-1.004z"/>
    </symbol>
    <symbol id="icon-linkedin" viewBox="0 0 32 32">
      <path d="M27.263 27.269h-4.739v-7.425c0-1.771-.036-4.049-2.469-4.049-2.471 0-2.848 1.927-2.848 3.919v7.556h-4.739V12.001h4.552v2.081h.061c.636-1.2 2.183-2.467 4.493-2.467 4.801 0 5.689 3.16 5.689 7.273v8.381h-.001zM7.116 9.911a2.75 2.75 0 0 1-2.751-2.753 2.752 2.752 0 1 1 2.751 2.753zm2.376 17.358H4.74V12h4.752v15.269zM29.633 0H2.361C1.056 0 0 1.032 0 2.305v27.389c0 1.275 1.056 2.305 2.361 2.305h27.268c1.304 0 2.371-1.031 2.371-2.305V2.305C32 1.032 30.933 0 29.629 0h.004z"/>
    </symbol>
    <symbol id="icon-twitter" viewBox="0 0 32 32">
      <path d="M24.881 12.4a9.967 9.967 0 0 0 2.319-2.327c-.875.381-1.75.635-2.625.719.962-.592 1.662-1.396 2.013-2.454-.919.508-1.881.888-2.931 1.058-.438-.423-.963-.762-1.531-1.015S20.945 8 20.289 8c-.831 0-1.575.212-2.275.592-.7.423-1.269.973-1.662 1.65-.438.677-.613 1.438-.613 2.2 0 .338 0 .677.087 1.015-1.881-.085-3.631-.508-5.294-1.354a12.02 12.02 0 0 1-4.156-3.3c-.438.719-.656 1.481-.656 2.242s.175 1.481.569 2.115c.35.677.875 1.185 1.487 1.608a3.874 3.874 0 0 1-2.056-.592v.085c0 1.058.35 1.989 1.05 2.792a4.432 4.432 0 0 0 2.625 1.565 6.328 6.328 0 0 1-1.225.127c-.263 0-.569 0-.831-.042.263.889.788 1.608 1.575 2.2s1.662.846 2.712.846c-1.706 1.269-3.631 1.904-5.731 1.904-.438 0-.787 0-1.094-.042 2.1 1.354 4.462 1.988 7.044 1.988 2.669 0 5.031-.635 7.131-1.988 1.881-1.185 3.369-2.75 4.419-4.781 1.006-1.861 1.531-3.85 1.531-5.881 0-.254-.044-.423-.044-.55z"/>
    </symbol>
    <symbol id="icon-facebook" viewBox="0 0 32 32">
      <path d="M32 16.097c0-8.836-7.164-16-16-16s-16 7.164-16 16c0 7.987 5.851 14.605 13.5 15.805v-11.18H9.437v-4.627H13.5v-3.523c0-4.009 2.389-6.225 6.044-6.225 1.749 0 3.581.313 3.581.313v3.937h-2.019c-1.988 0-2.608 1.233-2.608 2.499v3h4.437l-.709 4.627h-3.728v11.18c7.651-1.201 13.501-7.821 13.501-15.807z"/>
    </symbol>
    <symbol id="icon-instagram" viewBox="0 0 32 32">
      <path d="M16 10.25c1 0 1.95.3 2.85.8s1.6 1.2 2.1 2.1c.5.9.8 1.85.8 2.85 0 1.05-.3 2-.8 2.9s-1.2 1.6-2.1 2.1c-.9.5-1.85.75-2.85.75-1.05 0-2-.25-2.9-.75s-1.6-1.2-2.1-2.1c-.5-.9-.75-1.85-.75-2.9 0-1 .25-1.95.75-2.85s1.2-1.6 2.1-2.1c.9-.5 1.85-.8 2.9-.8zm0 9.5c1 0 1.9-.35 2.65-1.1.7-.7 1.1-1.6 1.1-2.65 0-1-.4-1.9-1.1-2.65-.75-.7-1.65-1.1-2.65-1.1-1.05 0-1.95.4-2.65 1.1-.75.75-1.1 1.65-1.1 2.65 0 1.05.35 1.95 1.1 2.65.7.75 1.6 1.1 2.65 1.1zM23.35 10c0-.35-.15-.65-.4-.95-.3-.25-.6-.4-.95-.4-.4 0-.7.15-.95.4-.3.3-.4.6-.4.95 0 .4.1.7.4.95.25.3.55.4.95.4.35 0 .65-.1.9-.4.25-.25.4-.55.45-.95zm3.8 1.35c0 .95.05 2.5.05 4.65 0 2.2-.05 3.75-.1 4.7s-.2 1.75-.4 2.45c-.3.85-.8 1.6-1.4 2.2s-1.35 1.05-2.15 1.35c-.7.25-1.55.4-2.5.45s-2.5.05-4.65.05c-2.2 0-3.75 0-4.7-.05s-1.75-.2-2.45-.5c-.85-.25-1.6-.7-2.2-1.3S5.6 24 5.3 23.15c-.25-.7-.4-1.5-.45-2.45S4.8 18.2 4.8 16c0-2.15 0-3.7.05-4.65s.2-1.8.45-2.5c.3-.8.75-1.55 1.35-2.15S8 5.6 8.85 5.3c.7-.2 1.5-.35 2.45-.4s2.5-.1 4.7-.1c2.15 0 3.7.05 4.65.1s1.8.2 2.5.4c.8.3 1.55.8 2.15 1.4s1.1 1.35 1.4 2.15c.2.7.35 1.55.45 2.5zm-2.4 11.25c.2-.55.3-1.45.4-2.7 0-.7.05-1.75.05-3.1v-1.6c0-1.35-.05-2.4-.05-3.1-.1-1.25-.2-2.15-.4-2.7-.4-1-1.15-1.75-2.15-2.15-.55-.2-1.45-.3-2.7-.4-.75 0-1.8-.05-3.1-.05h-1.6c-1.35 0-2.4.05-3.1.05-1.25.1-2.15.2-2.7.4-1.05.4-1.75 1.15-2.15 2.15-.2.55-.35 1.45-.4 2.7-.05.75-.05 1.8-.05 3.1v1.6c0 1.35 0 2.4.05 3.1.05 1.25.2 2.15.4 2.7.4 1.05 1.15 1.75 2.15 2.15.55.2 1.45.35 2.7.4.7.05 1.75.05 3.1.05h1.6c1.35 0 2.4 0 3.1-.05 1.25-.05 2.15-.2 2.7-.4 1-.4 1.75-1.15 2.15-2.15z"/>
    </symbol>
    <symbol id="icon-menu" viewBox="0 0 33 32">
      <path d="M4.903 7.742h23.226v2.601H4.903V7.742zm0 9.012v-2.54h23.226v2.54H4.903zm0 6.472v-2.601h23.226v2.601H4.903z"/>
    </symbol>
  </defs>
</svg>
